<?xml version="1.0" standalone="no"?>
<!DOCTYPE svg PUBLIC "-//W3C//DTD SVG 20010904//EN"
 "http://www.w3.org/TR/2001/REC-SVG-20010904/DTD/svg10.dtd">
<svg version="1.0" xmlns="http://www.w3.org/2000/svg"
 width="700.000000pt" height="700.000000pt" viewBox="0 0 700.000000 700.000000"
 preserveAspectRatio="xMidYMid meet">
<metadata>
Created by potrace 1.11, written by Peter Selinger 2001-2013
</metadata>
<g transform="translate(0.000000,700.000000) scale(0.100000,-0.100000)"
fill="#000000" stroke="none">
<path d="M1928 6995 c-2 -1 -77 -5 -168 -9 -150 -5 -210 -12 -210 -22 0 -2 6
-13 12 -24 10 -15 10 -25 2 -38 -16 -25 -40 -26 -74 -2 -51 37 -201 48 -238
18 -12 -10 -11 -15 8 -30 12 -10 31 -18 42 -18 24 0 119 -61 115 -74 -2 -6
-35 -10 -73 -11 l-69 0 1 -55 c1 -30 12 -82 24 -115 12 -33 29 -78 37 -99 11
-31 12 -45 2 -68 -16 -38 -89 -107 -141 -132 -32 -16 -56 -40 -96 -99 -30 -43
-69 -95 -88 -115 -33 -35 -52 -77 -41 -88 2 -3 17 -7 32 -10 32 -6 62 -28 100
-73 19 -22 33 -30 46 -26 18 6 18 -5 14 -267 -4 -230 -2 -282 11 -328 19 -65
22 -80 30 -140 19 -155 50 -287 110 -472 51 -158 51 -168 -1 -299 -48 -120
-46 -144 30 -314 18 -41 53 -178 60 -240 3 -27 8 -61 10 -75 3 -14 7 -47 10
-75 4 -27 13 -88 22 -135 19 -106 21 -119 28 -150 7 -31 8 -37 45 -230 16 -85
32 -168 34 -185 3 -16 17 -102 31 -190 15 -88 28 -169 30 -180 1 -11 11 -56
20 -100 9 -44 19 -90 21 -101 8 -42 46 -159 62 -189 8 -16 32 -52 53 -80 71
-95 95 -233 56 -326 -15 -36 -74 -89 -137 -123 -60 -32 -222 -142 -290 -196
-60 -49 -159 -138 -305 -274 -33 -31 -78 -70 -100 -86 -22 -17 -74 -56 -116
-88 -93 -70 -252 -206 -354 -304 -22 -21 -64 -55 -93 -74 -45 -30 -58 -35 -77
-26 -28 13 -69 -11 -99 -60 -11 -18 -23 -35 -26 -38 -9 -7 -28 -78 -35 -130
-4 -25 -7 -130 -8 -235 l-2 -190 1323 -3 1322 -2 0 22 c0 44 21 98 44 114 41
26 71 10 100 -57 20 -45 31 -60 53 -66 29 -8 362 -11 445 -3 58 5 71 12 66 36
-3 16 -23 21 -147 37 -133 16 -211 38 -211 57 0 5 26 6 59 3 57 -5 58 -5 86
30 31 41 26 52 -33 76 -18 8 -34 16 -36 20 -2 3 33 6 78 6 74 0 87 3 132 30
80 50 136 151 102 186 -35 35 -48 66 -48 110 0 66 51 137 201 279 306 289 409
395 409 421 0 26 -21 51 -51 62 -9 3 -42 -8 -75 -24 -91 -44 -123 -38 -204 39
-43 40 -57 30 -66 -45 -3 -26 -7 -49 -9 -51 -1 -2 -12 12 -24 31 -28 46 -75
66 -108 46 -27 -15 -41 -38 -70 -114 -15 -41 -23 -50 -43 -50 -34 0 -64 48
-96 153 -27 91 -65 142 -103 142 -12 0 -40 -17 -64 -38 -50 -46 -75 -56 -93
-41 -50 41 32 133 159 179 15 5 71 19 124 30 116 24 198 62 218 101 8 15 12
34 10 41 -11 28 -209 131 -330 173 -66 23 -160 23 -219 1 -25 -10 -46 -21 -46
-24 0 -4 -12 -21 -28 -37 -74 -82 -230 -307 -384 -555 -169 -273 -279 -410
-327 -410 -23 0 -81 62 -81 86 0 28 57 84 92 91 37 7 39 11 41 86 3 83 27 132
236 480 181 302 236 383 310 460 58 61 82 71 124 53 44 -18 136 -103 143 -132
14 -55 67 -52 134 8 19 17 60 42 90 56 48 22 72 25 180 28 185 5 295 -26 414
-116 82 -62 101 -44 61 56 -29 72 -48 102 -76 118 -28 16 -126 39 -219 50 -91
11 -266 36 -290 41 -14 3 -47 9 -75 14 -75 15 -204 59 -253 87 -48 28 -80 73
-77 107 8 69 55 157 85 157 25 0 51 -53 67 -139 5 -32 11 -41 28 -41 19 0 34
54 38 139 5 92 11 98 147 142 198 63 295 157 203 196 -40 16 -61 21 -123 28
-30 3 -66 8 -80 10 -14 2 -50 6 -80 10 -92 10 -189 45 -226 81 -49 49 -54 103
-21 218 25 88 49 198 62 281 3 22 10 69 16 105 6 36 13 81 15 100 7 57 34 171
46 194 29 54 63 58 146 15 67 -35 145 -106 267 -244 140 -158 167 -184 208
-204 48 -24 67 -14 43 20 -31 45 -22 55 71 84 125 39 194 77 253 136 l51 52
-28 12 c-15 7 -57 22 -93 35 -77 27 -95 40 -57 41 15 1 30 2 35 3 4 1 32 6 62
10 30 5 70 17 89 29 30 18 51 21 170 21 116 1 141 4 168 21 18 10 35 26 38 34
7 18 -49 77 -133 139 -71 52 -68 58 33 61 135 4 225 59 148 89 -59 23 -260 65
-418 88 -22 3 -51 7 -65 9 -110 16 -163 23 -240 30 -36 4 -78 8 -95 10 -42 6
-186 14 -350 20 -146 5 -189 13 -227 39 -50 35 -94 9 -101 -59 -6 -52 -29 -67
-87 -59 -143 21 -361 74 -413 100 -42 22 -35 34 45 69 62 28 58 56 -23 135
-70 68 -66 75 34 65 45 -5 125 -9 177 -9 112 -1 124 13 48 52 -77 40 -60 63
55 76 133 14 177 87 107 176 -40 51 -35 79 9 56 16 -9 42 -27 59 -41 44 -37
51 -32 35 28 -8 28 -16 84 -19 122 -9 120 -18 140 -84 192 -33 25 -61 49 -61
52 -9 48 -6 63 23 92 17 17 68 49 114 71 45 22 114 65 153 95 131 99 153 92
176 -62 16 -111 36 -183 71 -263 40 -90 85 -135 126 -124 51 13 44 97 -15 197
-53 88 -67 121 -67 152 0 14 -16 59 -37 99 -20 41 -33 77 -30 81 9 8 309 74
314 69 2 -2 -18 -21 -46 -42 -71 -56 -78 -75 -40 -118 56 -64 74 -60 142 33
84 114 137 156 200 160 68 5 177 -79 177 -135 0 -41 36 -49 122 -30 40 9 81
23 90 29 15 12 15 16 -3 56 -43 96 -7 141 111 141 64 0 121 -22 195 -75 141
-100 213 -227 96 -169 -57 28 -74 -1 -51 -86 9 -35 19 -82 26 -130 4 -24 4
-106 1 -360 -2 -148 2 -176 38 -255 51 -114 111 -304 129 -415 3 -19 8 -46 11
-60 10 -46 14 -92 20 -194 14 -232 30 -345 52 -353 7 -3 30 9 50 27 20 18 51
39 70 46 18 8 33 18 34 22 0 4 1 41 2 82 2 69 7 85 59 192 31 64 64 143 73
174 9 32 46 104 81 161 36 56 71 118 79 137 17 40 24 122 30 338 2 87 8 166
15 177 6 12 29 30 52 42 l40 21 -6 97 -6 98 54 27 c79 40 83 68 14 90 -25 8
-34 18 -36 37 -3 30 14 48 54 55 39 7 44 12 44 43 0 18 -13 43 -39 72 -56 64
-58 78 -16 132 34 45 39 71 12 62 -27 -9 -135 -12 -148 -5 -9 6 -14 33 -14 92
-2 105 -8 122 -47 133 -41 13 -45 29 -14 56 14 13 26 28 26 34 0 6 -16 40 -35
76 l-34 65 35 50 c19 27 42 64 51 82 20 42 44 54 92 47 27 -4 42 -1 50 9 10
12 5 21 -23 49 -36 37 -62 88 -72 141 -7 40 -21 56 -50 56 -36 0 -72 17 -84
40 -6 12 -9 24 -6 28 4 3 48 -6 99 -21 51 -15 96 -27 100 -27 18 0 3 18 -30
37 -38 21 -107 31 -278 40 -90 4 -3532 13 -3537 8z"/>
<path d="M5038 1583 c-26 -6 -31 -42 -25 -151 13 -206 39 -258 177 -362 89
-66 167 -135 188 -164 13 -18 36 -78 52 -133 26 -91 88 -253 145 -378 13 -27
32 -70 43 -95 20 -45 65 -161 98 -253 l17 -47 541 2 541 3 -3 154 c-1 97 -7
163 -15 179 -6 15 -38 41 -72 60 -49 27 -164 109 -185 132 -3 3 -45 41 -95 85
-49 44 -108 97 -131 118 -129 118 -248 197 -299 197 -34 0 -32 -14 14 -69 51
-61 92 -127 112 -178 24 -62 1 -57 -48 10 -54 74 -86 110 -189 212 -80 80
-119 115 -214 195 -14 12 -36 31 -50 43 -33 29 -108 85 -258 192 -119 85 -162
125 -162 149 0 17 -48 60 -90 81 -37 19 -64 24 -92 18z"/>
</g>
</svg>
