<?xml version="1.0" standalone="no"?>
<!DOCTYPE svg PUBLIC "-//W3C//DTD SVG 20010904//EN"
 "http://www.w3.org/TR/2001/REC-SVG-20010904/DTD/svg10.dtd">
<svg version="1.0" xmlns="http://www.w3.org/2000/svg"
 width="225.000000pt" height="225.000000pt" viewBox="0 0 225.000000 225.000000"
 preserveAspectRatio="xMidYMid meet"  style="background-color: white;">
<metadata>
Created by potrace 1.13, written by Peter Selinger 2001-2015
</metadata>
<g transform="translate(0.000000,225.000000) scale(0.100000,-0.100000)"
fill="#000000" stroke="none">
<path d="M499 2236 c15 -18 -5 -34 -22 -17 -14 14 -77 15 -77 1 0 -5 6 -10 13
-10 7 0 22 -7 33 -15 18 -15 18 -15 -11 -13 -27 3 -30 0 -27 -22 2 -14 10 -38
17 -53 13 -25 12 -30 -7 -53 -12 -13 -27 -24 -35 -24 -7 0 -19 -13 -27 -28 -8
-16 -22 -34 -30 -41 -20 -17 -21 -31 -2 -31 8 0 21 -9 29 -21 11 -15 16 -17
20 -7 3 7 4 -31 1 -85 -2 -54 -1 -103 3 -110 4 -6 8 -18 8 -27 5 -54 20 -122
37 -168 19 -51 19 -57 4 -89 -20 -43 -20 -56 3 -101 10 -20 22 -70 26 -110 4
-41 14 -99 22 -130 7 -32 20 -100 28 -152 21 -141 36 -203 55 -225 29 -33 37
-58 33 -97 -5 -33 -11 -39 -66 -69 -34 -18 -96 -66 -137 -106 -41 -40 -78 -73
-82 -73 -7 0 -85 -65 -154 -129 -21 -19 -35 -26 -42 -19 -6 6 -17 -1 -31 -20
-17 -25 -21 -45 -21 -111 l0 -81 424 0 425 0 3 22 c4 33 36 35 44 4 6 -25 8
-26 95 -26 53 0 89 4 89 10 0 6 -3 10 -7 11 -77 8 -100 12 -108 21 -7 7 -3 8
11 4 13 -4 26 -1 34 9 10 12 8 17 -11 25 -22 10 -21 10 8 6 48 -8 108 57 73
79 -5 3 -10 18 -9 33 0 21 23 48 104 122 91 84 102 97 89 110 -12 12 -18 12
-34 2 -26 -16 -45 -15 -60 3 -18 22 -30 19 -30 -7 -1 -21 -2 -21 -11 -5 -17
28 -46 21 -53 -14 -9 -48 -37 -29 -51 34 -7 34 -33 47 -50 24 -15 -20 -35 -22
-35 -4 0 25 37 48 88 56 52 8 82 25 82 45 -1 15 -110 66 -140 65 -14 0 -33 -3
-42 -7 -18 -8 -94 -113 -158 -222 -22 -37 -52 -78 -65 -90 -24 -22 -27 -23
-42 -7 -13 13 -14 19 -3 31 7 9 19 16 26 16 10 0 13 7 9 23 -4 15 9 46 42 100
26 43 55 91 63 105 40 71 82 122 100 122 19 0 60 -36 60 -52 0 -15 27 -8 44
11 36 40 165 34 212 -10 31 -29 41 -18 20 25 -17 37 -7 33 -166 54 -75 10
-138 34 -146 57 -9 21 13 68 29 63 6 -3 13 -17 15 -31 7 -55 28 -23 24 34 -1
12 12 20 42 28 24 6 54 19 67 30 34 28 15 42 -68 48 -97 8 -122 35 -97 106 8
22 19 79 25 129 13 98 22 110 66 87 27 -14 42 -29 109 -106 20 -24 43 -43 51
-43 12 0 13 3 3 15 -10 12 -5 16 33 26 25 6 55 22 68 35 l22 23 -24 9 c-13 5
-31 12 -39 15 -8 3 2 6 22 6 20 1 40 6 44 12 4 7 24 9 50 6 26 -3 50 0 60 8
16 11 16 13 -3 31 -11 10 -28 24 -39 31 -17 10 -14 12 23 12 38 1 63 14 50 27
-12 13 -232 47 -312 50 -121 3 -127 3 -142 15 -16 14 -33 3 -33 -23 0 -22 -11
-22 -117 3 -56 14 -66 24 -33 34 26 8 25 22 -2 45 -31 25 -22 30 36 19 51 -9
88 3 47 16 -29 9 -17 25 19 25 38 0 57 31 34 55 -24 23 -8 32 17 9 21 -19 22
-19 15 2 -4 12 -7 37 -8 57 -1 26 -7 39 -25 48 -35 19 -29 46 14 64 21 9 47
24 58 34 41 37 52 33 58 -21 7 -60 36 -123 57 -123 23 0 24 35 1 66 -12 15
-21 36 -21 46 0 10 -7 28 -15 40 -14 19 -13 21 13 26 15 3 41 9 57 12 l30 7
-24 -20 c-24 -19 -24 -20 -7 -38 18 -17 19 -17 37 6 36 49 49 60 72 60 25 0
57 -28 57 -49 0 -9 9 -11 33 -6 41 9 44 12 30 34 -22 35 31 55 80 30 33 -17
77 -61 71 -71 -3 -5 -12 -4 -19 2 -20 16 -26 -3 -14 -40 7 -19 10 -64 6 -113
-4 -67 -2 -87 13 -117 27 -53 50 -149 51 -216 1 -33 4 -72 8 -88 6 -28 7 -29
23 -13 9 9 22 17 28 17 8 0 10 10 7 26 -3 17 4 41 19 68 13 22 24 48 24 57 0
9 14 35 30 57 28 39 30 48 30 126 0 75 2 84 20 89 16 4 18 11 13 39 -4 30 -2
36 16 41 24 6 29 27 6 27 -8 0 -15 7 -15 15 0 8 6 15 14 15 25 0 28 18 6 40
-21 21 -21 22 -3 42 18 20 17 20 -17 16 -35 -3 -35 -3 -33 35 2 27 -2 37 -12
37 -18 0 -20 17 -3 22 7 3 6 12 -6 30 -12 18 -14 28 -6 33 6 4 15 17 20 30 7
17 14 22 29 18 12 -3 21 -1 21 6 0 6 -4 11 -9 11 -9 0 -24 33 -26 55 0 6 -9
10 -19 10 -11 0 -21 6 -24 14 -3 10 0 12 14 6 11 -4 28 -9 39 -12 19 -4 20 -4
1 11 -16 13 -102 15 -689 16 -579 0 -668 -2 -658 -14z"/>
<path d="M1612 449 c5 -66 6 -68 96 -136 20 -15 32 -35 36 -60 4 -21 22 -69
40 -108 18 -38 39 -87 45 -107 l13 -38 174 0 174 0 0 58 c0 54 -2 58 -31 71
-16 7 -62 43 -100 80 -73 68 -104 90 -128 91 -11 0 -9 -6 6 -22 24 -27 46 -68
40 -74 -2 -3 -12 8 -22 23 -27 43 -132 139 -207 189 -38 25 -68 49 -68 54 0
16 -31 40 -52 40 -19 0 -20 -5 -16 -61z"/>
</g>
</svg>
